<svg width="97" height="87" viewBox="0 0 97 87" fill="none" xmlns="http://www.w3.org/2000/svg">
<path d="M0 60.6107C16.5292 56.6201 59.0491 51.0334 96.8953 60.6107C83.7226 53.3897 45.4458 44.0405 0 60.6107Z" fill="#E6B61E"/>
<path d="M23.2686 53.9173V40.7259L24.8606 35.7791L26.9832 40.7259V52.6806H28.9732V34.9547L30.8306 30.8324L32.9532 35.7791V52.6806H34.9433V32.4813L36.8006 27.5345L38.7906 32.4813V52.6806H40.7806V30.0079L42.3726 25.8856L44.4953 30.0079V52.6806H46.7506V27.5345L48.4753 23L50.598 27.5345V52.6806H52.588V30.0079L54.3126 25.8856L56.4353 30.0079V52.6806H58.4253V32.4813L60.15 28.359L62.2727 32.4813V52.6806H64.3953V34.9547L66.2527 30.8324L68.11 34.9547V52.6806H70.2327V39.9014L72.09 35.7791L73.9473 39.9014V53.9173H23.2686Z" fill="#E6B61E"/>
</svg>
